#tb 0: 71/1000
0,          0,          0,        1,   228150, 0x188c6d9b
0,          1,          1,        1,   228150, 0x658dbf2f
0,          2,          2,        1,   228150, 0xc09a4b2e
0,          3,          3,        1,   228150, 0x8777bc7d
0,          4,          4,        1,   228150, 0xa388f0ce
0,          5,          5,        1,   228150, 0x4e06666e
